# Simple unit cube centered at origin
o Cube
v -0.5 -0.5  0.5
v  0.5 -0.5  0.5
v  0.5  0.5  0.5
v -0.5  0.5  0.5
v -0.5 -0.5 -0.5
v  0.5 -0.5 -0.5
v  0.5  0.5 -0.5
v -0.5  0.5 -0.5
vt 0.0 0.0
vt 1.0 0.0
vt 1.0 1.0
vt 0.0 1.0
vn  0.0  0.0  1.0
vn  1.0  0.0  0.0
vn  0.0  0.0 -1.0
vn -1.0  0.0  0.0
vn  0.0  1.0  0.0
vn  0.0 -1.0  0.0
usemtl None
s off
f 1/1/1 2/2/1 3/3/1 4/4/1
f 2/1/2 6/2/2 7/3/2 3/4/2
f 6/1/3 5/2/3 8/3/3 7/4/3
f 5/1/4 1/2/4 4/3/4 8/4/4
f 4/1/5 3/2/5 7/3/5 8/4/5
f 5/1/6 6/2/6 2/3/6 1/4/6
